<svg id="Capa_1" enable-background="new 0 0 99.703 99.703" viewBox="0 0 99.703 99.703" xmlns="http://www.w3.org/2000/svg"><g><g id="Layer_2_00000114073085806108472850000011128663630103514252_"><g id="_1_00000121279173190372774580000014872176636677001357_"><g id="Search_00000057126626437611630580000000468963825751848843_"><path d="m40 10c16.569 0 30 13.431 30 30s-13.431 30-30 30-30-13.431-30-30 13.431-30 30-30zm0-10c-22.091 0-40 17.909-40 40s17.909 40 40 40 40-17.909 40-40-17.909-40-40-40z"/><path d="m73.51 61.84 24.17 24.16c2.995 3.455 2.622 8.685-.833 11.68-3.112 2.698-7.734 2.698-10.847 0l-24.17-24.15z"/><path d="m25 35.62c-.615-.002-1.224-.114-1.8-.33-2.576-.995-3.857-3.89-2.861-6.466 0-.001.001-.003.001-.004 3.961-10.264 15.493-15.373 25.756-11.411.001 0 .002.001.004.001 2.576.994 3.859 3.889 2.865 6.465s-3.889 3.859-6.465 2.865c-5.114-1.97-10.858.571-12.84 5.68-.743 1.927-2.595 3.198-4.66 3.2z"/></g></g></g></g><g/><g/><g/><g/><g/><g/><g/><g/><g/><g/><g/><g/><g/><g/><g/></svg>